# xmcd CD database file
#
# Track frame offsets:
#	150
#	15238
#	32975
#
# Disc length: 826 seconds
#
# Revision: 0
# Processed by: cddbd v1.5PL3 Copyright (c) Steve Scherf et al.
# Submitted via: CDex 1.50
#
DISCID=17033803
DTITLE=MR. ORANGE - Spin Me Out
DYEAR=2002
DGENRE=Hard Rock
TTITLE0=Spin Me Out
TTITLE1=Can't Hold Me Down
TTITLE2=Dizzy (Unplugged)
EXTD=YEAR: 2002
EXTT0=
EXTT1=
EXTT2=
PLAYORDER=
